<svg width="191" height="63" viewBox="0 0 191 63" fill="none" xmlns="http://www.w3.org/2000/svg">
<path d="M84.847 36.644C85.5437 36.644 86.196 36.4983 86.804 36.207C87.412 35.9157 87.9503 35.4977 88.419 34.953L90.224 36.739C89.5907 37.4863 88.78 38.0817 87.792 38.525C86.8167 38.9683 85.8097 39.19 84.771 39.19C83.7703 39.19 82.833 39.0127 81.959 38.658C81.0977 38.3033 80.3503 37.822 79.717 37.214C79.0837 36.606 78.5833 35.884 78.216 35.048C77.8613 34.212 77.684 33.3127 77.684 32.35C77.684 31.3873 77.8677 30.488 78.235 29.652C78.6023 28.8033 79.1027 28.075 79.736 27.467C80.3693 26.859 81.1167 26.3777 81.978 26.023C82.852 25.6683 83.783 25.491 84.771 25.491C85.835 25.491 86.8673 25.719 87.868 26.175C88.8687 26.6183 89.6793 27.22 90.3 27.98L88.438 29.823C87.9693 29.2403 87.4183 28.797 86.785 28.493C86.1517 28.1763 85.4803 28.018 84.771 28.018C84.1757 28.018 83.612 28.132 83.08 28.36C82.5607 28.5753 82.111 28.8793 81.731 29.272C81.351 29.652 81.0533 30.108 80.838 30.64C80.6227 31.1593 80.515 31.7293 80.515 32.35C80.515 32.958 80.6227 33.528 80.838 34.06C81.066 34.5793 81.37 35.029 81.75 35.409C82.1427 35.789 82.5987 36.093 83.118 36.321C83.65 36.5363 84.2263 36.644 84.847 36.644ZM105.03 32.35C105.03 33.3 104.846 34.1993 104.479 35.048C104.111 35.884 103.611 36.6123 102.978 37.233C102.357 37.841 101.616 38.3223 100.755 38.677C99.8933 39.0317 98.9686 39.209 97.9806 39.209C97.0053 39.209 96.0869 39.0317 95.2256 38.677C94.3643 38.3223 93.6169 37.841 92.9836 37.233C92.3629 36.6123 91.8689 35.884 91.5016 35.048C91.1343 34.1993 90.9506 33.3 90.9506 32.35C90.9506 31.4 91.1343 30.507 91.5016 29.671C91.8689 28.8223 92.3629 28.094 92.9836 27.486C93.6169 26.8653 94.3643 26.3777 95.2256 26.023C96.0869 25.6683 97.0053 25.491 97.9806 25.491C98.9686 25.491 99.8933 25.6683 100.755 26.023C101.616 26.3777 102.357 26.8653 102.978 27.486C103.611 28.094 104.111 28.8223 104.479 29.671C104.846 30.507 105.03 31.4 105.03 32.35ZM102.199 32.35C102.199 31.7293 102.091 31.1593 101.876 30.64C101.66 30.108 101.363 29.652 100.983 29.272C100.615 28.8793 100.172 28.5753 99.6526 28.36C99.1333 28.132 98.5759 28.018 97.9806 28.018C97.3853 28.018 96.8279 28.132 96.3086 28.36C95.8019 28.5753 95.3586 28.8793 94.9786 29.272C94.6113 29.652 94.3199 30.108 94.1046 30.64C93.8893 31.1593 93.7816 31.7293 93.7816 32.35C93.7816 32.958 93.8893 33.528 94.1046 34.06C94.3199 34.592 94.6113 35.0543 94.9786 35.447C95.3586 35.827 95.8019 36.131 96.3086 36.359C96.8279 36.5743 97.3853 36.682 97.9806 36.682C98.5759 36.682 99.1333 36.5743 99.6526 36.359C100.172 36.131 100.615 35.827 100.983 35.447C101.363 35.0543 101.66 34.592 101.876 34.06C102.091 33.528 102.199 32.958 102.199 32.35ZM110.3 39L104.904 25.7H107.887L111.953 36.207L116.114 25.7H118.964L113.492 39H110.3ZM120.093 39V25.7H122.848V39H120.093ZM125.27 39V25.7H130.381C131.369 25.7 132.294 25.871 133.155 26.213C134.017 26.555 134.758 27.0237 135.378 27.619C136.012 28.2143 136.506 28.9237 136.86 29.747C137.228 30.5703 137.411 31.4507 137.411 32.388C137.411 33.3127 137.228 34.1803 136.86 34.991C136.506 35.8017 136.012 36.5047 135.378 37.1C134.758 37.6827 134.017 38.145 133.155 38.487C132.294 38.829 131.369 39 130.381 39H125.27ZM130.362 28.151H128.025V36.549H130.362C130.945 36.549 131.49 36.4413 131.996 36.226C132.516 36.0107 132.965 35.7193 133.345 35.352C133.725 34.972 134.023 34.5287 134.238 34.022C134.454 33.5153 134.561 32.9707 134.561 32.388C134.561 31.7927 134.454 31.2353 134.238 30.716C134.023 30.1967 133.725 29.747 133.345 29.367C132.965 28.987 132.516 28.6893 131.996 28.474C131.49 28.2587 130.945 28.151 130.362 28.151ZM142.702 32.483H149.846V34.687H142.702V32.483ZM160.071 25.7V39H157.468V28.341L154.865 29.405V27.144L158.418 25.7H160.071ZM166.676 25.472C167.55 25.472 168.348 25.6367 169.07 25.966C169.792 26.2827 170.406 26.7323 170.913 27.315C171.432 27.885 171.831 28.5753 172.11 29.386C172.401 30.1967 172.547 31.0897 172.547 32.065C172.547 33.129 172.389 34.1043 172.072 34.991C171.755 35.865 171.312 36.6123 170.742 37.233C170.172 37.8537 169.482 38.335 168.671 38.677C167.86 39.019 166.967 39.19 165.992 39.19C165.27 39.19 164.554 39.076 163.845 38.848C163.136 38.6073 162.54 38.2907 162.059 37.898L163.541 36.036C163.934 36.34 164.345 36.5617 164.776 36.701C165.207 36.8403 165.675 36.91 166.182 36.91C167.322 36.91 168.215 36.5237 168.861 35.751C169.52 34.9657 169.881 33.8573 169.944 32.426C169.513 32.9073 168.981 33.2873 168.348 33.566C167.715 33.832 167.043 33.965 166.334 33.965C165.663 33.965 165.042 33.8637 164.472 33.661C163.902 33.4583 163.408 33.1797 162.99 32.825C162.585 32.4577 162.268 32.027 162.04 31.533C161.812 31.0263 161.698 30.4753 161.698 29.88C161.698 29.2467 161.825 28.664 162.078 28.132C162.331 27.5873 162.673 27.1187 163.104 26.726C163.547 26.3333 164.073 26.0293 164.681 25.814C165.302 25.586 165.967 25.472 166.676 25.472ZM166.752 31.913C167.347 31.913 167.898 31.7863 168.405 31.533C168.924 31.2797 169.387 30.9187 169.792 30.45C169.589 29.614 169.222 28.9427 168.69 28.436C168.158 27.9293 167.525 27.676 166.79 27.676C166.068 27.676 165.46 27.8787 164.966 28.284C164.485 28.6893 164.244 29.2023 164.244 29.823C164.244 30.4437 164.478 30.9503 164.947 31.343C165.416 31.723 166.017 31.913 166.752 31.913Z" fill="#035755"/>
<path d="M44.9204 31.4997C44.9204 32.5498 45.7716 33.4012 46.8218 33.4012H51.1462C53.3476 33.4012 55.5224 33.9058 57.4878 34.8974C58.0737 35.1931 58.7468 35.3414 59.4583 35.2939C61.3433 35.168 62.8715 33.6348 62.9919 31.7494C63.1331 29.5359 61.3801 27.697 59.197 27.697C58.6057 27.697 58.0459 27.832 57.547 28.0729C55.5443 29.0398 53.3693 29.5984 51.1454 29.5984H46.8218C45.7718 29.5983 44.9204 30.4497 44.9204 31.4997Z" fill="#FB4C47"/>
<path d="M19.154 43.8447C18.5401 43.2308 17.5448 43.2308 16.9309 43.8447L14.4028 46.3728C13.1159 47.6597 11.5495 48.6361 9.82084 49.2054C9.3054 49.3751 8.82528 49.6818 8.43719 50.1255C7.40878 51.3011 7.41161 53.0908 8.44347 54.2634C9.65485 55.6401 11.7547 55.6903 13.031 54.414C13.3766 54.0684 13.6249 53.6622 13.7759 53.2297C14.3814 51.4937 15.3264 49.8957 16.6265 48.5956L19.1541 46.068C19.7678 45.4539 19.7678 44.4586 19.154 43.8447Z" fill="#FB4C47"/>
<path d="M41.9569 21.0433C42.5993 21.6857 43.6408 21.6857 44.2832 21.0433L46.9287 18.3979C48.2754 17.0512 49.9145 16.0295 51.7234 15.4337C52.2627 15.2561 52.7652 14.9351 53.1713 14.4708C54.2474 13.2406 54.2445 11.3678 53.1646 10.1408C51.897 8.7003 49.6996 8.64776 48.3641 9.98318C48.0024 10.3449 47.7426 10.7699 47.5847 11.2225C46.951 13.0391 45.9622 14.7113 44.6018 16.0718L41.9568 18.7168C41.3145 19.3594 41.3145 20.4008 41.9569 21.0433Z" fill="#FB4C47"/>
<path d="M31.4989 44.9199C30.4488 44.9199 29.5975 45.7712 29.5975 46.8213V51.1457C29.5975 53.3471 29.0929 55.5219 28.1012 57.4873C27.8055 58.0732 27.6573 58.7463 27.7048 59.4577C27.8307 61.3428 29.3638 62.871 31.2492 62.9914C33.4627 63.1326 35.3016 61.3796 35.3016 59.1965C35.3016 58.6052 35.1666 58.0454 34.9257 57.5465C33.9588 55.5438 33.4002 53.3688 33.4002 51.1449V46.8213C33.4003 45.7713 32.549 44.9199 31.4989 44.9199Z" fill="#FFA2A1"/>
<path d="M34.9285 57.5466C33.9616 55.5439 33.4029 53.369 33.4029 51.145V46.8213C33.4029 45.7713 32.5517 44.9199 31.5015 44.9199C30.4513 44.9199 29.6001 45.7712 29.6001 46.8213V51.145C29.6001 53.369 30.1587 55.5438 31.1256 57.5466C31.3665 58.0456 31.5015 58.6053 31.5015 59.1967C31.5015 60.6031 30.7377 61.8301 29.6028 62.488C30.0951 62.7743 30.6558 62.9535 31.252 62.9915C33.4655 63.1328 35.3044 61.3797 35.3044 59.1967C35.3044 58.6053 35.1694 58.0456 34.9285 57.5466Z" fill="#FB4C47"/>
<path d="M17.3091 23.647C20.7395 23.647 23.5203 20.8662 23.5203 17.4358C23.5203 14.0055 20.7395 11.2246 17.3091 11.2246C13.8788 11.2246 11.0979 14.0055 11.0979 17.4358C11.0979 20.8662 13.8788 23.647 17.3091 23.647Z" fill="#FF807E"/>
<path d="M17.3082 11.2246C16.6448 11.2246 16.0062 11.3297 15.4067 11.5223C17.9068 12.3255 19.7165 14.6689 19.7165 17.4358C19.7165 20.2028 17.9068 22.5462 15.4067 23.3494C16.0061 23.542 16.6447 23.647 17.3082 23.647C20.7385 23.647 23.5194 20.8662 23.5194 17.4358C23.5194 14.0054 20.7384 11.2246 17.3082 11.2246Z" fill="#FB4C47"/>
<path d="M31.5002 51.7812C42.7014 51.7812 51.7817 42.7009 51.7817 31.4997C51.7817 20.2986 42.7014 11.2183 31.5002 11.2183C20.2991 11.2183 11.2188 20.2986 11.2188 31.4997C11.2188 42.7009 20.2991 51.7812 31.5002 51.7812Z" fill="#FFBFBE"/>
<path d="M31.5015 11.2183C30.8602 11.2183 30.2263 11.2494 29.6001 11.3077C39.9095 12.2665 47.9803 20.94 47.9803 31.4997C47.9803 42.0595 39.9096 50.733 29.6002 51.6918C30.2263 51.75 30.8603 51.7812 31.5016 51.7812C42.7029 51.7812 51.7831 42.701 51.7831 31.4997C51.7831 20.2985 42.7027 11.2183 31.5015 11.2183Z" fill="#FFA2A2"/>
<path d="M39.1036 28.6866C41.3788 28.6866 43.2233 26.8422 43.2233 24.567C43.2233 22.2917 41.3788 20.4473 39.1036 20.4473C36.8283 20.4473 34.9839 22.2917 34.9839 24.567C34.9839 26.8422 36.8283 28.6866 39.1036 28.6866Z" fill="#FFA2A1"/>
<path d="M39.1065 20.4473C38.4204 20.4473 37.774 20.616 37.2051 20.9126C38.523 21.5998 39.4234 22.9778 39.4234 24.567C39.4234 26.1561 38.523 27.5342 37.2051 28.2213C37.774 28.5179 38.4204 28.6866 39.1065 28.6866C41.3818 28.6866 43.2262 26.8422 43.2262 24.567C43.2262 22.2917 41.3818 20.4473 39.1065 20.4473Z" fill="#FF807E"/>
<path d="M24.2484 42.2112C25.7886 42.2112 27.0371 40.9627 27.0371 39.4225C27.0371 37.8823 25.7886 36.6338 24.2484 36.6338C22.7083 36.6338 21.4597 37.8823 21.4597 39.4225C21.4597 40.9627 22.7083 42.2112 24.2484 42.2112Z" fill="#FF807E"/>
<path d="M45.2971 50.3442C47.3973 50.3442 49.0998 48.6417 49.0998 46.5415C49.0998 44.4413 47.3973 42.7388 45.2971 42.7388C43.1969 42.7388 41.4944 44.4413 41.4944 46.5415C41.4944 48.6417 43.1969 50.3442 45.2971 50.3442Z" fill="#FB4C47"/>
<path d="M45.2977 42.7388C44.6048 42.7388 43.9557 42.9251 43.3962 43.2488C44.5326 43.9063 45.2977 45.1342 45.2977 46.5416C45.2977 47.949 44.5326 49.1768 43.3962 49.8344C43.9557 50.1582 44.6048 50.3445 45.2977 50.3445C47.3979 50.3445 49.1004 48.6419 49.1004 46.5417C49.1004 44.4416 47.3979 42.7388 45.2977 42.7388Z" fill="#FF807E"/>
<path d="M18.0794 31.4997C18.0794 32.5498 17.2282 33.4012 16.178 33.4012H11.8537C9.65229 33.4012 7.47746 33.9058 5.51205 34.8974C4.92611 35.1931 4.25305 35.3414 3.5416 35.2939C1.65654 35.168 0.128316 33.6348 0.00797766 31.7494C-0.133279 29.5359 1.61975 27.697 3.80283 27.697C4.39418 27.697 4.95392 27.832 5.45287 28.0729C7.45556 29.0398 9.63051 29.5984 11.8544 29.5984H16.1781C17.2281 29.5983 18.0794 30.4497 18.0794 31.4997Z" fill="#FB4C47"/>
<path d="M31.4988 18.0794C32.5488 18.0794 33.4002 17.2282 33.4002 16.178V11.8537C33.4002 9.65229 33.9048 7.47746 34.8964 5.51205C35.1921 4.92611 35.3404 4.25305 35.2929 3.5416C35.167 1.65654 33.6339 0.128316 31.7484 0.00797766C29.535 -0.133279 27.696 1.61975 27.696 3.80283C27.696 4.39418 27.831 4.95392 28.0719 5.45287C29.0388 7.45556 29.5975 9.63051 29.5975 11.8544V16.1781C29.5973 17.2281 30.4487 18.0794 31.4988 18.0794Z" fill="#FFA2A1"/>
<path d="M35.2938 3.54159C35.168 1.65653 33.6348 0.128306 31.7494 0.00796756C30.9619 -0.0423581 30.2225 0.148116 29.5957 0.51147C30.6605 1.13076 31.4048 2.25256 31.491 3.54159C31.5385 4.25304 31.3902 4.9261 31.0945 5.51204C30.1029 7.47745 29.5983 9.65228 29.5983 11.8537V16.178C29.5983 17.2281 30.4495 18.0794 31.4997 18.0794C32.5499 18.0794 33.4011 17.2282 33.4011 16.178V11.8537C33.4011 9.65228 33.9058 7.47745 34.8974 5.51204C35.1931 4.9261 35.3415 4.25304 35.2938 3.54159Z" fill="#FB4C47"/>
<path d="M59.2006 27.6992C58.6096 27.6992 58.0502 27.8341 57.5515 28.0749C57.4633 28.1175 57.3742 28.1583 57.2854 28.1993C58.4964 28.8925 59.2894 30.2329 59.1926 31.7493C59.1098 33.0462 58.3604 34.1761 57.2871 34.7957C57.3555 34.8288 57.4243 34.8612 57.4922 34.8954C58.0779 35.1908 58.7505 35.3391 59.4616 35.2916C61.3455 35.1657 62.8729 33.6336 62.9931 31.7493C63.1344 29.537 61.3823 27.6992 59.2006 27.6992Z" fill="#FF807E"/>
</svg>
